<svg xmlns="http://www.w3.org/2000/svg" viewBox="0 0 128 128" role="img" aria-label="روايات خيالية">
<defs>
  <linearGradient id="g" x1="0" y1="0" x2="1" y2="1">
    <stop stop-color="#e3bde9"/><stop offset=".55" stop-color="#a76bd0"/><stop offset="1" stop-color="#ef8fbd"/>
  </linearGradient>
</defs>
<rect x="7" y="7" width="114" height="114" rx="30" fill="#12101b"/>
<path d="M18 91V64c15-7 29-6 46 3v29c-17-8-31-9-46-5Z" fill="#17131b" stroke="#f4eafa" stroke-width="4.5" stroke-linejoin="round"/>
<path d="M110 91V64c-16-9-30-9-46-3v34c16-8 30-9 46-4Z" fill="#17131b" stroke="#d9c5e1" stroke-width="4.5" stroke-linejoin="round"/>
<path d="M64 66v29" stroke="url(#g)" stroke-width="3.5" stroke-linecap="round"/>
<path d="M44 54V34l10 7c6-4 13-5 20-3 5 1 9 3 13 6l10-8v18c0 13-11 22-27 22S44 67 44 54Z" fill="#24202d" stroke="url(#g)" stroke-width="3"/>
<path d="M49 35l-4-12 13 9M81 32l13-10-4 13" fill="#24202d" stroke="url(#g)" stroke-width="3" stroke-linejoin="round"/>
<path d="M64 73c8-1 15-4 22-9" fill="none" stroke="#80559f" stroke-width="2"/>
<path d="M47 69c-8 5-18 7-27 5" fill="none" stroke="url(#g)" stroke-width="4.5" stroke-linecap="round"/>
<ellipse cx="53" cy="76" rx="12" ry="7" fill="#24202d"/>
<ellipse cx="76" cy="76" rx="12" ry="7" fill="#24202d"/>
</svg>